<?xml version="1.0" encoding="UTF-8" standalone="no"?>
<svg xmlns="http://www.w3.org/2000/svg" width="128" height="128" viewBox="-56 -28 112 112" xmlns:xlink="http://www.w3.org/1999/xlink">
    <defs>
        <path id="petal" fill="#FF80AB" d="M0 0L6-9L3-15L0-12L-3-15L-6-9Z"/>
        <path id="petal2" fill="#EC407A" d="M0 0L4 6L2 10L0 8L-2 10L-4 6Z"/>
        <filter id="neon">
          <feGaussianBlur in="SourceGraphic" stdDeviation=".3"/>
          <feMerge> 
            <feMergeNode/>
            <feMergeNode in="SourceGraphic"/>
          </feMerge>
        </filter>
    </defs>
    <rect x="-50%" y="-25%" width="100%" height="100%" fill="#212121"/>
    <g filter="url(#neon)">
        <g stroke-width="1.5" stroke="#ffffffdd" fill="none" stroke-linecap="round" stroke-linejoin="round" transform="scale(1.4)">
            <path d="M-18-10l-8 10l8 10"/>
            <path d="M16-10l-5 20"/>
            <path d="M18-10l8 10l-8 10"/>
        </g>
        <g transform="scale(1.5)">
            <use xlink:href="#petal" transform="rotate(  0)"/>
            <use xlink:href="#petal" transform="rotate( 72)"/>
            <use xlink:href="#petal" transform="rotate(144)"/>
            <use xlink:href="#petal" transform="rotate(216)"/>
            <use xlink:href="#petal" transform="rotate(288)"/>
            <use xlink:href="#petal2" transform="scale(.75) rotate(  0)"/>
            <use xlink:href="#petal2" transform="scale(.75) rotate( 72)"/>
            <use xlink:href="#petal2" transform="scale(.75) rotate(144)"/>
            <use xlink:href="#petal2" transform="scale(.75) rotate(216)"/>
            <use xlink:href="#petal2" transform="scale(.75) rotate(288)"/>
            <circle r="1.5" fill="#C2185B"/>
        </g>
        <rect x="-32" y="46" rx="12" width="64" height="32" fill="#ffffffdd"/>    
        <rect x="-48" y="28" rx="12" width="96" height="32" fill="#EC407A"/>
    </g>
    <g text-anchor="middle" font-family="Uroob" filter="url(#neon)">
        <text x="0" y="54" fill="#ffffffdd" font-size="32">HOMES</text>
        <text x="0" y="74" fill="#EC407A" font-size="16">FABRIC</text>
    </g>
</svg>